<?xml version="1.0" encoding="UTF-8"?>
<svg width="24px" height="23px" viewBox="0 0 24 23" version="1.1" xmlns="http://www.w3.org/2000/svg" xmlns:xlink="http://www.w3.org/1999/xlink">
    <title>LinkedIn@1x</title>
    <g id="Page-1" stroke="none" stroke-width="1" fill="none" fill-rule="evenodd">
        <g id="icon-linkedin" fill="#4283d4" fill-rule="nonzero">
            <path d="M24,14.04 L24,22.92 L18.84,22.92 L18.84,14.64 C18.84,12.54 18.12,11.16 16.26,11.16 C14.82,11.16 13.98,12.12 13.62,13.02 C13.5,13.38 13.44,13.8 13.44,14.28 L13.44,22.92 L8.28,22.92 C8.28,22.92 8.34,8.88 8.28,7.44 L13.44,7.44 L13.44,9.66 C13.44,9.66 13.44,9.72 13.38,9.72 L13.44,9.72 L13.44,9.66 C14.1,8.58 15.36,7.08 18.06,7.08 C21.48,7.08 24,9.3 24,14.04 Z M2.94,0 C1.14,0 0,1.14 0,2.7 C0,4.2 1.14,5.4 2.82,5.4 L2.88,5.4 C4.68,5.4 5.82,4.2 5.82,2.7 C5.76,1.14 4.68,0 2.94,0 Z M0.3,22.92 L5.46,22.92 L5.46,7.44 L0.3,7.44 L0.3,22.92 Z" id="LinkedIn"></path>
        </g>
    </g>
</svg>