<svg xmlns="http://www.w3.org/2000/svg" width="73.31" height="25" viewBox="0 0 73.31 25">
  <path d="M73.15,4.67C73,4.2,70.46,4.07,68,4.06c-.06-.09-.11-.19-.18-.28C65.09.45,59.87,0,55.13,0,49.89,0,42,.76,39.05,4.14c-.67,0-1.49-.09-2.39-.09s-1.73,0-2.4.09C31.33.76,23.42,0,18.18,0,13.44,0,8.22.45,5.47,3.78c-.07.09-.12.19-.18.28-2.44,0-5,.14-5.13.61-.22.94-.3,3.4.37,3.57A8.28,8.28,0,0,1,3.77,9.42a29.43,29.43,0,0,0,1,7c1.36,5.61,3.45,6.82,8.38,7.92a27.65,27.65,0,0,0,6,.61c3.84,0,8.19-.23,10.09-2,2.08-2,3.91-8.16,5.62-13.1A2.71,2.71,0,0,1,36.66,8.7,2.7,2.7,0,0,1,38.5,9.89C40.22,14.83,42.05,21,44.13,23c1.89,1.79,6.24,2,10.08,2a27.65,27.65,0,0,0,5.95-.61c4.94-1.1,7-2.31,8.39-7.92a29.88,29.88,0,0,0,1-7,8.33,8.33,0,0,1,3.24-1.18C73.46,8.07,73.37,5.61,73.15,4.67ZM26.67,20.75C24.66,22.62,18.19,23,14,22a7.54,7.54,0,0,1-6.28-6.28c-.94-4.88-.74-9.39.64-11.07s4.44-2.44,9.86-2.44c13.16,0,13.16,5.35,13.16,7C31.34,13.19,29.25,18.36,26.67,20.75Zm39-5A7.52,7.52,0,0,1,59.36,22c-4.23.95-10.71.6-12.72-1.27C44.07,18.36,42,13.19,42,9.23c0-1.65,0-7,13.16-7,5.43,0,8.47.76,9.86,2.44S66.57,10.86,65.63,15.74Z"/>
</svg>
