<?xml version="1.0" encoding="UTF-8"?>
<svg width="33px" height="33px" viewBox="0 0 33 33" version="1.1" xmlns="http://www.w3.org/2000/svg" xmlns:xlink="http://www.w3.org/1999/xlink">
    <title>Shape@1x</title>
    <g id="Page-1" stroke="none" stroke-width="1" fill="none" fill-rule="evenodd">
        <path d="M32.4186825,29.8149874 L23.9743927,21.3836689 C28.2007279,15.7939876 27.3793448,7.88668481 22.0943665,3.28500571 C16.8093882,-1.3166734 8.86426984,-1.04244394 3.90914895,3.91267695 C-1.04597194,8.86779784 -1.3202014,16.8129162 3.28147771,22.0978945 C7.88315681,27.3828728 15.7904596,28.2042559 21.3801409,23.9779207 L29.8244307,32.4092393 C30.7741268,33.2043803 31.6388774,33.2043803 32.4186825,32.4092393 C33.1984877,31.6140983 33.1984877,30.7493476 32.4186825,29.8149874 Z M6.47616396,20.190313 C3.69662268,17.4120621 2.86458109,13.23291 4.36808736,9.60193259 C5.87159363,5.97095522 9.4144931,3.60336801 13.3444457,3.60336801 C17.2743984,3.60336801 20.8172979,5.97095522 22.3208041,9.60193259 C23.8243104,13.23291 22.9922688,17.4120621 20.2127275,20.190313 C16.4189645,23.9823149 10.269927,23.9823149 6.47616396,20.190313 Z" id="Shape" fill="#000000" fill-rule="nonzero"></path>
    </g>
</svg>