<?xml version="1.0" encoding="UTF-8"?>
<svg width="36px" height="34px" viewBox="0 0 36 34" version="1.1" xmlns="http://www.w3.org/2000/svg" xmlns:xlink="http://www.w3.org/1999/xlink">
    <title>Combined Shape@1x</title>
    <g id="Page-1" stroke="none" stroke-width="1" fill="none" fill-rule="evenodd">
        <path d="M17.5492089,0.088 C27.2035152,0.088 35.052,7.06846252 35.052,15.6509984 C35.052,24.3786699 27.3653971,31.2139968 17.5492089,31.2139968 C16.248571,31.2139968 12.5224944,30.6613652 10.8590175,30.368303 C7.74976715,32.3415885 4.813563,33.3212536 3.33708772,33.3910303 C3.31755024,33.3938214 3.29243062,33.3938214 3.27010207,33.3938214 C2.75375439,33.3938214 2.27648166,33.1063413 2.03365869,32.645815 C1.78246252,32.1629601 1.83270175,31.5768357 2.16483892,31.1470112 C3.28963955,29.6817002 4.21069219,28.0824179 4.90566826,26.3910303 C1.81037321,23.5022743 0.052,19.6422265 0.052,15.6482073 C0.052,7.06567145 7.89490271,0.088 17.5492089,0.088 Z M17.5547911,3.50064254 C9.82078849,3.50064254 3.53142417,8.96259895 3.53142417,15.6749789 C3.53142417,19.0351596 5.09046287,22.1691998 7.92120891,24.497116 C8.35220596,24.8536197 8.51449497,25.4442453 8.3256012,25.97368 C7.95845557,26.9953026 7.5194771,27.9849995 7.01132626,28.9401102 C7.94781367,28.5197551 9.02264581,27.9477529 10.1639898,27.1921778 C10.4566422,26.9926421 10.8211273,26.9287907 11.1723101,26.9979631 C12.3216356,27.2400663 16.5039032,27.8493153 17.5547911,27.8493153 C25.5495203,27.8493153 31.578158,22.6134993 31.578158,15.6749789 C31.578158,8.96259895 25.2887936,3.50064254 17.5547911,3.50064254 Z" id="Combined-Shape" fill="#000000" fill-rule="nonzero"></path>
    </g>
</svg>